<svg width="4385" height="4391" viewBox="0 0 4385 4391" fill="none" xmlns="http://www.w3.org/2000/svg">
<path d="M3453.33 2056.27C3444.26 2048.02 3455.9 2016.86 3467.81 2019.74C3994.03 2146.82 4385 2621.72 4385 3186.84C4385 3850.69 3846.85 4390.35 3183 4390.35H232C103.87 4390.35 0.000218978 4286.48 0 4158.35V2580C0 2574.48 4.47715 2570 10 2570H3269C3420.33 2570 3543 2447.33 3543 2296V2259C3543 2178.66 3508.42 2106.39 3453.33 2056.27Z" fill="white"/>
<path d="M4153 0C4281.13 1.42707e-05 4385 103.87 4385 232V1810.35C4385 1815.87 4380.52 1820.35 4375 1820.35H1116C964.674 1820.35 842 1943.02 842 2094.35V2131.35C842 2211.69 876.583 2283.96 931.677 2334.08C940.739 2342.33 929.101 2373.48 917.192 2370.61C390.976 2243.53 2.2722e-05 1768.63 0 1203.5C0.000196576 539.656 538.154 4.54355e-06 1202 0H4153ZM4179.32 253.537C4190.63 228.97 4163.99 204.238 4140.33 217.335L4009.06 289.995C4000.62 294.665 3990.38 294.665 3981.94 289.995L3851.63 217.864C3827.88 204.716 3801.19 229.677 3812.72 254.256L3873.42 383.606C3876.95 391.142 3876.95 399.86 3873.42 407.396L3812.72 536.746C3801.19 561.325 3827.88 586.286 3851.63 573.138L3981.94 501.007C3990.38 496.337 4000.62 496.337 4009.06 501.007L4140.33 573.667C4163.99 586.764 4190.63 562.032 4179.32 537.465L4119.39 407.205C4115.97 399.777 4115.97 391.225 4119.39 383.797L4179.32 253.537Z" fill="white"/>
<path d="M1425.11 2285.62C1425.11 2298.74 1423.94 2311.39 1421.6 2323.58C1419.25 2335.77 1414.57 2348.42 1407.54 2361.54C1400.98 2374.66 1392.54 2386.15 1382.23 2395.99C1371.92 2405.36 1357.86 2413.1 1340.05 2419.19C1322.71 2425.28 1302.79 2428.33 1280.3 2428.33C1224.06 2428.33 1183.05 2415.2 1157.27 2388.96C1131.96 2362.24 1119.31 2322.41 1119.31 2269.45H1217.73C1217.73 2313.97 1237.88 2336.23 1278.19 2336.23C1296 2336.23 1308.42 2332.72 1315.45 2325.69C1322.94 2318.19 1326.93 2306.94 1327.4 2291.94C1327.86 2276.01 1321.3 2263.59 1307.71 2254.69C1294.12 2245.78 1277.25 2239.22 1257.1 2235C1237.41 2230.32 1217.73 2224.69 1198.04 2218.13C1178.36 2211.1 1161.49 2198.91 1147.43 2181.57C1133.37 2164.23 1126.34 2141.03 1126.34 2111.98C1126.34 2014.49 1175.08 1965.75 1272.56 1965.75C1371.45 1965.75 1420.9 2015.67 1420.9 2115.49H1323.18C1323.18 2094.87 1318.73 2080.34 1309.82 2071.91C1301.39 2063 1288.5 2058.55 1271.16 2058.55C1240.22 2058.55 1224.76 2073.78 1224.76 2104.24C1224.76 2116.9 1231.55 2126.74 1245.15 2133.77C1259.21 2140.8 1275.84 2146.66 1295.06 2151.34C1314.74 2156.03 1334.43 2162.12 1354.11 2169.62C1373.79 2177.12 1390.43 2190.71 1404.02 2210.4C1418.08 2229.61 1425.11 2254.69 1425.11 2285.62ZM1794.81 2422H1695.69V2238.52H1583.91V2422H1484.79V1972.08H1583.91V2147.13H1695.69V1972.08H1794.81V2422ZM2197.62 2129.55C2200.43 2150.17 2201.84 2172.9 2201.84 2197.74C2201.84 2222.58 2200.43 2245.08 2197.62 2265.23C2195.28 2285.38 2190.12 2306 2182.16 2327.09C2174.66 2348.18 2164.58 2365.99 2151.93 2380.52C2139.74 2394.58 2122.87 2406.07 2101.31 2414.97C2080.22 2423.87 2055.38 2428.33 2026.79 2428.33C1998.67 2428.33 1973.83 2423.87 1952.28 2414.97C1931.19 2405.6 1914.55 2393.88 1902.36 2379.82C1890.18 2365.76 1880.33 2348.18 1872.84 2327.09C1865.34 2306 1860.42 2285.38 1858.07 2265.23C1855.73 2244.61 1854.56 2221.88 1854.56 2197.04C1854.56 2172.2 1855.73 2149.7 1858.07 2129.55C1860.89 2108.93 1865.81 2088.07 1872.84 2066.99C1880.33 2045.89 1890.18 2028.32 1902.36 2014.26C1915.02 2000.2 1931.89 1988.72 1952.98 1979.81C1974.07 1970.44 1998.67 1965.75 2026.79 1965.75C2055.38 1965.75 2080.22 1970.44 2101.31 1979.81C2122.87 1988.72 2139.74 2000.2 2151.93 2014.26C2164.58 2028.32 2174.66 2045.89 2182.16 2066.99C2190.12 2088.07 2195.28 2108.93 2197.62 2129.55ZM2100.61 2197.74C2100.61 2178.53 2099.67 2161.66 2097.8 2147.13C2096.39 2132.6 2093.11 2118.3 2087.95 2104.24C2083.27 2089.72 2075.77 2078.7 2065.46 2071.2C2055.15 2063.24 2042.26 2059.25 2026.79 2059.25C2011.8 2059.25 1999.14 2063.24 1988.83 2071.2C1978.99 2078.7 1971.49 2089.72 1966.34 2104.24C1961.65 2118.3 1958.37 2132.6 1956.49 2147.13C1955.09 2161.66 1954.38 2178.29 1954.38 2197.04C1954.38 2216.26 1955.09 2233.13 1956.49 2247.66C1958.37 2261.72 1961.65 2276.01 1966.34 2290.54C1971.49 2304.6 1978.99 2315.61 1988.83 2323.58C1999.14 2331.08 2011.8 2334.83 2026.79 2334.83C2042.26 2334.83 2055.15 2331.08 2065.46 2323.58C2075.77 2315.61 2083.27 2304.6 2087.95 2290.54C2093.11 2276.48 2096.39 2262.18 2097.8 2247.66C2099.67 2233.13 2100.61 2216.49 2100.61 2197.74ZM2591.69 2129.55C2594.5 2150.17 2595.9 2172.9 2595.9 2197.74C2595.9 2222.58 2594.5 2245.08 2591.69 2265.23C2589.34 2285.38 2584.19 2306 2576.22 2327.09C2568.72 2348.18 2558.65 2365.99 2545.99 2380.52C2533.81 2394.58 2516.93 2406.07 2495.38 2414.97C2474.29 2423.87 2449.45 2428.33 2420.86 2428.33C2392.74 2428.33 2367.9 2423.87 2346.34 2414.97C2325.25 2405.6 2308.61 2393.88 2296.43 2379.82C2284.24 2365.76 2274.4 2348.18 2266.9 2327.09C2259.4 2306 2254.48 2285.38 2252.14 2265.23C2249.79 2244.61 2248.62 2221.88 2248.62 2197.04C2248.62 2172.2 2249.79 2149.7 2252.14 2129.55C2254.95 2108.93 2259.87 2088.07 2266.9 2066.99C2274.4 2045.89 2284.24 2028.32 2296.43 2014.26C2309.08 2000.2 2325.95 1988.72 2347.04 1979.81C2368.13 1970.44 2392.74 1965.75 2420.86 1965.75C2449.45 1965.75 2474.29 1970.44 2495.38 1979.81C2516.93 1988.72 2533.81 2000.2 2545.99 2014.26C2558.65 2028.32 2568.72 2045.89 2576.22 2066.99C2584.19 2088.07 2589.34 2108.93 2591.69 2129.55ZM2494.67 2197.74C2494.67 2178.53 2493.74 2161.66 2491.86 2147.13C2490.45 2132.6 2487.17 2118.3 2482.02 2104.24C2477.33 2089.72 2469.83 2078.7 2459.52 2071.2C2449.21 2063.24 2436.32 2059.25 2420.86 2059.25C2405.86 2059.25 2393.21 2063.24 2382.9 2071.2C2373.05 2078.7 2365.55 2089.72 2360.4 2104.24C2355.71 2118.3 2352.43 2132.6 2350.56 2147.13C2349.15 2161.66 2348.45 2178.29 2348.45 2197.04C2348.45 2216.26 2349.15 2233.13 2350.56 2247.66C2352.43 2261.72 2355.71 2276.01 2360.4 2290.54C2365.55 2304.6 2373.05 2315.61 2382.9 2323.58C2393.21 2331.08 2405.86 2334.83 2420.86 2334.83C2436.32 2334.83 2449.21 2331.08 2459.52 2323.58C2469.83 2315.61 2477.33 2304.6 2482.02 2290.54C2487.17 2276.48 2490.45 2262.18 2491.86 2247.66C2493.74 2233.13 2494.67 2216.49 2494.67 2197.74ZM2963.26 2422H2840.93L2753.06 2256.09V2422H2653.94V1972.08H2791.72C2818.91 1972.08 2842.34 1975.83 2862.02 1983.33C2882.18 1990.36 2897.17 1999.03 2907.02 2009.34C2917.33 2019.65 2925.29 2032.3 2930.92 2047.3C2937.01 2062.3 2940.76 2075.42 2942.17 2086.67C2943.57 2097.45 2944.27 2109.4 2944.27 2122.52C2944.27 2135.18 2942.87 2147.36 2940.06 2159.08C2937.71 2170.79 2933.26 2183.21 2926.7 2196.34C2920.14 2209.46 2909.83 2220.94 2895.77 2230.78C2881.71 2240.16 2864.6 2246.48 2844.45 2249.76L2963.26 2422ZM2843.75 2122.52C2843.75 2084.09 2826.17 2064.88 2791.02 2064.88H2753.06V2178.76H2791.02C2826.17 2178.76 2843.75 2160.02 2843.75 2122.52ZM3331.01 2422H3226.96L3208.68 2344.67H3086.36L3068.08 2422H2964.04L3087.07 1972.08H3207.98L3331.01 2422ZM3189 2261.01L3147.52 2077.53L3106.05 2261.01H3189Z" fill="white"/>
</svg>
